<svg width="84" height="68" viewBox="0 0 84 68" fill="none" xmlns="http://www.w3.org/2000/svg">
<path d="M14.4163 32.8198C14.4163 16.3927 42.325 7.05517 50.6942 11.8968C59.0979 16.7385 59.0288 48.9702 50.6942 53.7773C42.325 58.6189 14.4163 49.2814 14.4163 32.8198Z" fill="url(#paint0_linear_5206_2)"/>
<path d="M14.4163 32.8198C14.4163 16.3927 42.325 7.05517 50.6942 11.8968C59.0979 16.7385 59.0288 48.9702 50.6942 53.7773C42.325 58.6189 14.4163 49.2814 14.4163 32.8198Z" fill="white" fill-opacity="0.5"/>
<path d="M53.8412 67.506C49.5528 67.506 45.1953 64.5318 45.1953 58.8601C45.1953 55.3326 47.0974 52.4276 50.0024 51.0443L41.5987 19.4006C36.9645 19.3314 33.0566 19.4351 29.4253 19.7118L29.1487 16.2535C33.2295 15.9422 37.587 15.8385 42.9474 15.9422L44.2616 15.9768L53.3224 50.2143C58.3716 49.9722 62.4524 53.7418 62.4524 58.8601C62.487 63.8056 58.752 67.506 53.8412 67.506ZM53.8412 53.6726C50.8324 53.6726 48.6537 55.8514 48.6537 58.8601C48.6537 62.6989 51.4549 64.0476 53.8412 64.0476C56.8499 64.0476 59.0287 61.8689 59.0287 58.8601C59.0287 55.8514 56.8499 53.6726 53.8412 53.6726ZM9.1595 67.506C4.87117 67.506 0.513672 64.5318 0.513672 58.8601C0.513672 53.9147 4.21409 50.2143 9.1595 50.2143C13.4824 50.2143 16.8716 53.0847 17.6324 57.131H27.5924C31.5695 57.131 33.437 56.3701 36.3074 53.6726C38.7628 51.321 41.1145 48.831 43.2933 46.2372L45.9562 48.4506C43.7083 51.1481 41.2528 53.7418 38.6937 56.1626C35.1662 59.5172 32.4687 60.5893 27.5924 60.5893H17.667C16.9062 64.6356 13.517 67.506 9.1595 67.506ZM9.1595 53.6726C6.15076 53.6726 3.97201 55.8514 3.97201 58.8601C3.97201 62.6989 6.77326 64.0476 9.1595 64.0476C12.1683 64.0476 14.347 61.8689 14.347 58.8601C14.347 55.8514 12.1683 53.6726 9.1595 53.6726ZM52.9074 24.0347H50.6595C49.4145 24.0347 48.377 23.0318 48.377 21.7522C48.377 20.5072 49.3799 19.5043 50.6595 19.5043H52.9074V24.0347Z" fill="#21201F"/>
<path d="M68.1241 16.4158L57.6919 5.53254L59.4179 3.74031L69.8755 14.6236L68.1241 16.4158ZM59.4179 16.4158L57.6919 14.6236L68.1749 3.74031L69.8755 5.53254L59.4179 16.4158Z" fill="#21201F"/>
<path d="M74.8656 10.5975V7.79231H77.2008C77.7761 7.79231 78.2753 7.69707 78.6984 7.50659C79.1214 7.2988 79.4514 7.00442 79.6883 6.62346C79.9252 6.22519 80.0436 5.74899 80.0436 5.19487C80.0436 4.67538 79.9252 4.23382 79.6883 3.87018C79.4683 3.50654 79.1383 3.22948 78.6984 3.039C78.2584 2.8312 77.7169 2.72731 77.0739 2.72731C76.2786 2.72731 75.5171 2.87449 74.7895 3.16887C74.0787 3.44593 73.3173 3.90481 72.505 4.54551V1.53249C72.9788 1.18616 73.4696 0.900444 73.9772 0.675333C74.4849 0.450221 75.0348 0.285717 75.6271 0.18182C76.2193 0.0606066 76.8539 0 77.5308 0C78.7153 0 79.7391 0.207795 80.6021 0.623385C81.4651 1.03897 82.1335 1.61907 82.6073 2.36367C83.0811 3.10827 83.318 3.96542 83.318 4.93513C83.318 5.55851 83.208 6.12129 82.988 6.62346C82.768 7.12563 82.4804 7.54988 82.125 7.89621C81.7697 8.24253 81.3635 8.51959 80.9067 8.72739C80.4498 8.93518 79.9844 9.06505 79.5106 9.117V9.0131C80.086 9.06505 80.6359 9.20358 81.1605 9.42869C81.702 9.63649 82.1842 9.93086 82.6073 10.3118C83.0303 10.6928 83.3603 11.1517 83.5972 11.6885C83.851 12.2253 83.9779 12.84 83.9779 13.5326C83.9779 14.6582 83.6987 15.6452 83.1403 16.4937C82.5819 17.3249 81.8035 17.9743 80.8051 18.4418C79.8067 18.892 78.6391 19.1171 77.3023 19.1171C76.6255 19.1171 75.974 19.0565 75.3479 18.9353C74.7218 18.8314 74.138 18.6669 73.5965 18.4418C73.055 18.1994 72.5558 17.9137 72.0989 17.5846V14.5716C72.8942 15.195 73.6895 15.6539 74.4849 15.9483C75.2802 16.2426 76.1347 16.3898 77.0485 16.3898C77.8269 16.3898 78.4784 16.2686 79.003 16.0262C79.5275 15.7838 79.9167 15.4461 80.1706 15.0132C80.4413 14.563 80.5767 14.0262 80.5767 13.4028C80.5767 12.7794 80.4498 12.2599 80.1959 11.8443C79.9421 11.4287 79.5614 11.117 79.0537 10.9092C78.5461 10.7014 77.8946 10.5975 77.0993 10.5975H74.8656Z" fill="#21201F"/>
<defs>
<linearGradient id="paint0_linear_5206_2" x1="14.4163" y1="32.8369" x2="56.9711" y2="32.8369" gradientUnits="userSpaceOnUse">
<stop stop-color="#FF5C4D"/>
<stop offset="0.25" stop-color="#EB469F"/>
<stop offset="0.72" stop-color="#8341EF"/>
<stop offset="1" stop-color="#3F68F9"/>
</linearGradient>
</defs>
</svg>
