<svg width="62" height="58" viewBox="0 0 62 58" fill="none" xmlns="http://www.w3.org/2000/svg">
<path d="M0.691933 38.1964C-4.96137 20.9173 25.5269 0.128732 37.6324 13.0083C45.6378 21.5238 45.0449 41.9339 33.4389 49.8476C21.8329 57.7612 4.42895 49.6222 0.691933 38.1964Z" fill="url(#paint0_linear_5238_5)"/>
<path d="M0.691933 38.1964C-4.96137 20.9173 25.5269 0.128732 37.6324 13.0083C45.6378 21.5238 45.0449 41.9339 33.4389 49.8476C21.8329 57.7612 4.42895 49.6222 0.691933 38.1964Z" fill="white" fill-opacity="0.5"/>
<path d="M34.329 55.8812C21.5912 56.8642 11.9999 48.6472 11.0169 35.9094C10.034 23.1716 18.2509 13.5803 30.9888 12.5973C36.0592 12.206 40.7422 13.2442 44.5933 15.5906C50.2734 19.071 53.7234 25.0872 54.3008 32.5691C55.2838 45.307 47.0668 54.8982 34.329 55.8812ZM29.6863 15.8702C19.5028 17.3092 13.2927 25.0972 14.1087 35.6708C14.9652 46.77 22.9912 53.646 34.0904 52.7895C45.1896 51.933 52.0656 43.907 51.2091 32.8077C50.7105 26.3461 47.791 21.1598 42.9624 18.2357C40.0581 16.4693 36.5689 15.5878 32.778 15.6316L34.46 37.4281L20.3309 38.5185L20.0756 35.2103L31.113 34.3586L29.6863 15.8702ZM55.1064 20.4397L53.3245 17.9025L57.4263 15.0357L59.2083 17.5729L55.1064 20.4397ZM48.4478 13.1472L45.8598 11.4497L50.8738 3.87841L53.4618 5.57587L48.4478 13.1472ZM38.1512 8.68567L35.0522 8.4272C35.102 7.86354 34.9069 7.34988 34.4359 6.88861C32.7492 5.1838 28.0498 5.54645 26.6448 7.48985C26.281 8.01554 26.167 8.55306 26.3003 9.0715L23.2777 9.80237C22.9182 8.36836 23.2389 6.88185 24.14 5.66157C25.3763 3.94891 27.652 2.80915 30.1872 2.61351C32.7533 2.41548 35.146 3.19496 36.6305 4.69767C37.7414 5.79379 38.2864 7.21348 38.1512 8.68567Z" fill="#21201F"/>
<defs>
<linearGradient id="paint0_linear_5238_5" x1="41.7557" y1="19.2615" x2="2.65778" y2="42.2842" gradientUnits="userSpaceOnUse">
<stop stop-color="#FF5C4D"/>
<stop offset="0.25" stop-color="#EB469F"/>
<stop offset="0.72" stop-color="#8341EF"/>
<stop offset="1" stop-color="#3F68F9"/>
</linearGradient>
</defs>
</svg>
