<svg width="84" height="72" viewBox="0 0 84 72" fill="none" xmlns="http://www.w3.org/2000/svg">
<path d="M6.85931 46.5417C-0.16149 23.1394 37.7016 -5.01596 52.7354 12.4278C62.6772 23.9608 61.941 51.6038 47.5275 62.3217C33.1141 73.0397 11.5003 62.0165 6.85931 46.5417Z" fill="url(#paint0_linear_516_67)"/>
<path d="M6.85931 46.5417C-0.16149 23.1394 37.7016 -5.01596 52.7354 12.4278C62.6772 23.9608 61.941 51.6038 47.5275 62.3217C33.1141 73.0397 11.5003 62.0165 6.85931 46.5417Z" fill="white" fill-opacity="0.5"/>
<path d="M28.8014 33.8173C28.429 29.5606 31.5778 25.808 35.8344 25.4356L66.1784 22.7809C70.4351 22.4084 74.1877 25.5573 74.5601 29.8139L75.4196 39.6383C75.7921 43.895 72.6432 47.6476 68.3866 48.02L38.0426 50.6747C33.7859 51.0471 30.0333 47.8983 29.6609 43.6417L28.8014 33.8173Z" stroke="#21201F" stroke-width="3.50169"/>
<defs>
<linearGradient id="paint0_linear_516_67" x1="57.8561" y1="20.8968" x2="7.22539" y2="48.2346" gradientUnits="userSpaceOnUse">
<stop stop-color="#FF5C4D"/>
<stop offset="0.25" stop-color="#EB469F"/>
<stop offset="0.72" stop-color="#8341EF"/>
<stop offset="1" stop-color="#3F68F9"/>
</linearGradient>
</defs>
</svg>
